<?xml version="1.0" encoding="UTF-8" standalone="no"?>
<!-- Created with Inkscape (http://www.inkscape.org/) -->
<svg xmlns:rdf="http://www.w3.org/1999/02/22-rdf-syntax-ns#" xmlns="http://www.w3.org/2000/svg" height="15.875mm" width="21.167mm" version="1.1" xmlns:cc="http://creativecommons.org/ns#" xmlns:dc="http://purl.org/dc/elements/1.1/" viewBox="0 0 21.166592 15.875086">
 <metadata>
  <rdf:RDF>
   <cc:Work rdf:about="">
    <dc:format>image/svg+xml</dc:format>
    <dc:type rdf:resource="http://purl.org/dc/dcmitype/StillImage"/>
    <dc:title/>
   </cc:Work>
  </rdf:RDF>
 </metadata>
 <g transform="translate(-52.917 -107.63)">
  <g stroke-width=".75" transform="matrix(.35278 0 0 .35278 11.906 -168.68)">
   <path d="m133.5 802.77h3.1641v-3.0205h-3.16zm0 11.669h3.1641v-10.55h-3.16zm11.268-10.778c-1.0752 0-2.2354 0.35157-3.123 1.0752l-0.6123-0.84668h-2.0889v10.55h3.167v-5.6074c0-1.4678 1.04-2.4756 2.8857-2.4756h0.27832v-2.6748c-0.16699-0.0205-0.33691-0.0205-0.50683-0.0205zm6.457-0.082c-3.0381 0-4.8516 1.7783-4.8516 4.5703v1.9658c0 2.7949 1.8135 4.6348 4.8516 4.6348 2.8066 0 4.7051-1.4268 4.7051-3.6621h-3.1641v0.20801c0 0.57715-0.80273 0.96972-1.4971 0.96972-0.99316 0-1.7314-0.57714-1.7314-2.0039v-0.1875h6.4131v-2.4609c0-2.2969-1.9629-4.0342-4.7256-4.0342zm-1.6875 4.2832c0.0439-1.1807 0.6123-1.8018 1.7109-1.8018 1.0107 0 1.4736 0.51855 1.4736 1.5527v0.24902zm12.196 6.8877c2.3408 0 4.5381-1.1367 4.5381-3.5391 0-3.9082-5.7627-2.9356-5.7627-4.2598 0-0.37207 0.44238-0.72363 1.2041-0.72363 0.69434 0 1.2217 0.31055 1.2217 0.82617v0.20801h3.123v-0.20801c0-2.0068-1.749-3.4746-4.3242-3.4746-2.5547 0-4.3477 1.4473-4.3477 3.5801 0 3.8262 5.7393 2.7715 5.7393 4.2393 0 0.43359-0.52734 0.70312-1.2656 0.70312-0.80273 0-1.4766-0.33105-1.4766-0.93164v-0.24902h-3.1436v0.25c0 2.0684 1.793 3.5801 4.4941 3.5801zm9.9785 0c2.3438 0 4.5381-1.1367 4.5381-3.5391 0-3.9082-5.7598-2.9356-5.7598-4.2598 0-0.37207 0.44239-0.72363 1.2012-0.72363 0.69726 0 1.2246 0.31055 1.2246 0.82617v0.20801h3.123v-0.20801c0-2.0068-1.752-3.4746-4.3272-3.4746-2.5518 0-4.3447 1.4473-4.3447 3.5801 0 3.8262 5.7392 2.7715 5.7392 4.2393 0 0.43359-0.52734 0.70312-1.2656 0.70312-0.80273 0-1.4795-0.33105-1.4795-0.93164v-0.24902h-3.1436v0.25c0 2.0684 1.793 3.5801 4.4941 3.5801z" fill="#fff"/>
   <path d="m147.94 784.54c-0.0996-0.45703-0.43066-1.0166-1.0664-1.2217-0.53906-0.17285-1.1104-0.0381-1.5732 0.37207l-28.441 25.31c-0.13184 0.12012-0.56836 0.55957-0.60352 1.2422-0.0264 0.46289 0.14062 0.91699 0.46875 1.2773l14.587 16.028c0.21094 0.23145 0.53907 0.46582 0.94043 0.59473 0.3252 0.10254 0.69434 0.14063 1.0898 0.0557l21.237-4.4854c0.17285-0.0381 0.77051-0.20215 1.1484-0.77929 0.25195-0.38672 0.33398-0.86133 0.23144-1.3389l-1.251-5.7861c-0.74414 0.3457-1.6143 0.56836-2.5898 0.63867l1.0488 4.8574-20.08 4.2422-13.793-15.155 26.423-23.514 3.3867 15.653c0.6914-0.21386 1.456-0.33105 2.3057-0.33105 0.12012 0 0.2373 0.009 0.35742 0.0146z" fill="#21f5a8"/>
  </g>
 </g>
</svg>
